<svg width="800" height="400" viewBox="0 0 800 400" xmlns="http://www.w3.org/2000/svg"><mask id="satori_om-id"><rect x="0" y="0" width="800" height="400" fill="#fff"/></mask><rect x="0" y="0" width="800" height="400" fill="#fff"/><mask id="satori_om-id-0"><rect x="198" y="170" width="404" height="39" fill="#fff"/></mask><path fill="black" d="M206.3 180.7L199.1 180.7L199.1 176.7L218.3 176.7L218.3 180.7L211.1 180.7L211.1 200.0L206.3 200.0L206.3 180.7ZM230.1 192.5L230.1 192.5L230.1 182.5L235.0 182.5L235.0 200.0L230.3 200.0L230.3 196.8L230.2 196.8Q229.6 198.3 228.2 199.2Q226.8 200.2 224.9 200.2L224.9 200.2Q223.1 200.2 221.8 199.4Q220.5 198.6 219.7 197.1Q219.0 195.7 219.0 193.6L219.0 193.6L219.0 182.5L223.8 182.5L223.8 192.7Q223.8 194.3 224.6 195.2Q225.4 196.1 226.8 196.1L226.8 196.1Q227.7 196.1 228.5 195.7Q229.2 195.3 229.7 194.5Q230.2 193.7 230.1 192.5ZM253.4 187.5L253.4 187.5L248.9 187.7Q248.8 187.2 248.5 186.7Q248.1 186.3 247.5 186.0Q246.9 185.7 246.0 185.7L246.0 185.7Q244.9 185.7 244.1 186.2Q243.4 186.6 243.4 187.4L243.4 187.4Q243.4 188.1 243.9 188.5Q244.4 188.9 245.6 189.2L245.6 189.2L248.7 189.8Q251.3 190.3 252.5 191.5Q253.8 192.7 253.8 194.5L253.8 194.5Q253.8 196.3 252.8 197.6Q251.8 198.8 250.0 199.6Q248.3 200.3 246 200.3L246 200.3Q242.5 200.3 240.5 198.8Q238.4 197.4 238.1 194.9L238.1 194.9L242.8 194.6Q243.1 195.7 243.9 196.3Q244.7 196.8 246.0 196.8L246.0 196.8Q247.3 196.8 248.1 196.3Q248.8 195.8 248.9 195.0L248.9 195.0Q248.8 194.4 248.3 193.9Q247.8 193.5 246.6 193.3L246.6 193.3L243.6 192.7Q241.0 192.2 239.8 190.9Q238.5 189.7 238.5 187.7L238.5 187.7Q238.5 186.0 239.5 184.8Q240.4 183.6 242.0 182.9Q243.7 182.3 245.9 182.3L245.9 182.3Q249.3 182.3 251.2 183.7Q253.1 185.1 253.4 187.5ZM261.7 189.9L261.7 189.9L261.7 200.0L256.8 200.0L256.8 176.7L261.5 176.7L261.5 185.6L261.7 185.6Q262.3 184.0 263.6 183.2Q265.0 182.3 267.0 182.3L267.0 182.3Q268.8 182.3 270.1 183.1Q271.5 183.8 272.2 185.3Q273 186.8 273.0 188.8L273.0 188.8L273.0 200.0L268.1 200.0L268.1 189.7Q268.2 188.1 267.3 187.2Q266.5 186.3 265.0 186.3L265.0 186.3Q264.0 186.3 263.3 186.7Q262.5 187.1 262.1 187.9Q261.7 188.7 261.7 189.9ZM281.8 200.3L281.8 200.3Q280.1 200.3 278.8 199.7Q277.5 199.1 276.7 198.0Q276.0 196.8 276.0 195.1L276.0 195.1Q276.0 193.6 276.5 192.6Q277.1 191.6 278.0 191.0Q278.9 190.4 280.1 190.1Q281.3 189.8 282.5 189.7L282.5 189.7Q284.1 189.5 285 189.4Q285.9 189.3 286.4 189.0Q286.8 188.7 286.8 188.1L286.8 188.1L286.8 188.1Q286.8 187.0 286.1 186.4Q285.4 185.8 284.2 185.8L284.2 185.8Q282.9 185.8 282.1 186.4Q281.3 187.0 281.1 187.8L281.1 187.8L276.6 187.5Q276.9 185.9 277.9 184.7Q278.9 183.5 280.5 182.9Q282.1 182.3 284.2 182.3L284.2 182.3Q285.7 182.3 287.0 182.6Q288.3 183.0 289.4 183.7Q290.4 184.4 291.0 185.5Q291.6 186.6 291.6 188.2L291.6 188.2L291.6 200.0L287.0 200.0L287.0 197.5L286.9 197.5Q286.5 198.3 285.8 199.0Q285.1 199.6 284.1 199.9Q283.1 200.3 281.8 200.3ZM283.2 196.9L283.2 196.9Q284.2 196.9 285.1 196.5Q285.9 196.1 286.3 195.4Q286.8 194.6 286.8 193.7L286.8 193.7L286.8 191.9Q286.6 192.0 286.2 192.1Q285.8 192.2 285.3 192.3Q284.8 192.4 284.3 192.5Q283.8 192.6 283.4 192.6L283.4 192.6Q282.6 192.8 282.0 193.0Q281.3 193.3 281.0 193.8Q280.6 194.2 280.6 194.9L280.6 194.9Q280.6 195.9 281.3 196.4Q282.1 196.9 283.2 196.9ZM300.2 200.0L295.4 200.0L295.4 182.5L300.1 182.5L300.1 185.5L300.3 185.5Q300.7 183.9 301.9 183.1Q303.0 182.2 304.4 182.2L304.4 182.2Q304.8 182.2 305.2 182.3Q305.6 182.3 306.0 182.4L306.0 182.4L306.0 186.7Q305.6 186.6 305.0 186.5Q304.4 186.5 303.9 186.5L303.9 186.5Q302.9 186.5 302.0 186.9Q301.2 187.4 300.7 188.2Q300.2 189.0 300.2 190.1L300.2 190.1L300.2 200.0Z M332.9 176.7L337.8 176.7L337.8 200.0L333.5 200.0L323.4 185.3L323.2 185.3L323.2 200.0L318.3 200.0L318.3 176.7L322.6 176.7L332.7 191.3L332.9 191.3L332.9 176.7ZM346.7 200.3L346.7 200.3Q345.1 200.3 343.8 199.7Q342.5 199.1 341.7 198.0Q340.9 196.8 340.9 195.1L340.9 195.1Q340.9 193.6 341.5 192.6Q342.0 191.6 342.9 191.0Q343.9 190.4 345.0 190.1Q346.2 189.8 347.5 189.7L347.5 189.7Q349.0 189.5 350.0 189.4Q350.9 189.3 351.3 189.0Q351.7 188.7 351.7 188.1L351.7 188.1L351.7 188.1Q351.7 187.0 351.1 186.4Q350.4 185.8 349.1 185.8L349.1 185.8Q347.8 185.8 347.1 186.4Q346.3 187.0 346.0 187.8L346.0 187.8L341.6 187.5Q341.9 185.9 342.9 184.7Q343.9 183.5 345.5 182.9Q347.1 182.3 349.2 182.3L349.2 182.3Q350.6 182.3 351.9 182.6Q353.3 183.0 354.3 183.7Q355.4 184.4 356.0 185.5Q356.6 186.6 356.6 188.2L356.6 188.2L356.6 200.0L352.0 200.0L352.0 197.5L351.8 197.5Q351.4 198.3 350.7 199.0Q350.0 199.6 349.0 199.9Q348.0 200.3 346.7 200.3ZM348.1 196.9L348.1 196.9Q349.2 196.9 350.0 196.5Q350.8 196.1 351.3 195.4Q351.8 194.6 351.8 193.7L351.8 193.7L351.8 191.9Q351.5 192.0 351.1 192.1Q350.7 192.2 350.3 192.3Q349.8 192.4 349.3 192.5Q348.8 192.6 348.4 192.6L348.4 192.6Q347.5 192.8 346.9 193.0Q346.3 193.3 345.9 193.8Q345.6 194.2 345.6 194.9L345.6 194.9Q345.6 195.9 346.3 196.4Q347.0 196.9 348.1 196.9ZM365.2 189.9L365.2 189.9L365.2 200.0L360.3 200.0L360.3 182.5L364.9 182.5L364.9 185.6L365.1 185.6Q365.7 184.1 367.1 183.2Q368.5 182.3 370.4 182.3L370.4 182.3Q372.2 182.3 373.6 183.1Q374.9 183.9 375.7 185.3Q376.4 186.8 376.4 188.8L376.4 188.8L376.4 200.0L371.6 200.0L371.6 189.7Q371.6 188.1 370.8 187.2Q369.9 186.3 368.5 186.3L368.5 186.3Q367.5 186.3 366.8 186.7Q366.0 187.1 365.6 187.9Q365.2 188.7 365.2 189.9ZM387.8 191.3L384.6 194.9L384.6 189.1L385.3 189.1L390.9 182.5L396.5 182.5L389.0 191.3L387.8 191.3ZM385.1 200.0L380.2 200.0L380.2 176.7L385.1 176.7L385.1 200.0ZM396.8 200.0L391.1 200.0L386.0 192.3L389.2 188.9L396.8 200.0ZM403.8 200.3L403.8 200.3Q402.1 200.3 400.8 199.7Q399.5 199.1 398.8 198.0Q398.0 196.8 398.0 195.1L398.0 195.1Q398.0 193.6 398.6 192.6Q399.1 191.6 400.0 191.0Q400.9 190.4 402.1 190.1Q403.3 189.8 404.6 189.7L404.6 189.7Q406.1 189.5 407.0 189.4Q408.0 189.3 408.4 189.0Q408.8 188.7 408.8 188.1L408.8 188.1L408.8 188.1Q408.8 187.0 408.1 186.4Q407.5 185.8 406.2 185.8L406.2 185.8Q404.9 185.8 404.1 186.4Q403.4 187.0 403.1 187.8L403.1 187.8L398.6 187.5Q399.0 185.9 400.0 184.7Q401.0 183.5 402.6 182.9Q404.1 182.3 406.2 182.3L406.2 182.3Q407.7 182.3 409.0 182.6Q410.4 183.0 411.4 183.7Q412.4 184.4 413.0 185.5Q413.6 186.6 413.6 188.2L413.6 188.2L413.6 200.0L409.1 200.0L409.1 197.5L408.9 197.5Q408.5 198.3 407.8 199.0Q407.1 199.6 406.1 199.9Q405.1 200.3 403.8 200.3ZM405.2 196.9L405.2 196.9Q406.3 196.9 407.1 196.5Q407.9 196.1 408.4 195.4Q408.8 194.6 408.8 193.7L408.8 193.7L408.8 191.9Q408.6 192.0 408.2 192.1Q407.8 192.2 407.3 192.3Q406.9 192.4 406.4 192.5Q405.9 192.6 405.5 192.6L405.5 192.6Q404.6 192.8 404.0 193.0Q403.4 193.3 403.0 193.8Q402.6 194.2 402.6 194.9L402.6 194.9Q402.6 195.9 403.4 196.4Q404.1 196.9 405.2 196.9ZM422.2 189.9L422.2 189.9L422.2 200.0L417.4 200.0L417.4 182.5L422.0 182.5L422.0 185.6L422.2 185.6Q422.8 184.1 424.2 183.2Q425.5 182.3 427.5 182.3L427.5 182.3Q429.3 182.3 430.6 183.1Q432.0 183.9 432.7 185.3Q433.5 186.8 433.5 188.8L433.5 188.8L433.5 200.0L428.7 200.0L428.7 189.7Q428.7 188.1 427.8 187.2Q427.0 186.3 425.6 186.3L425.6 186.3Q424.6 186.3 423.8 186.7Q423.1 187.1 422.7 187.9Q422.3 188.7 422.2 189.9ZM442.1 200.0L437.3 200.0L437.3 182.5L442.1 182.5L442.1 200.0ZM439.7 180.2L439.7 180.2Q438.7 180.2 437.9 179.5Q437.1 178.8 437.1 177.8L437.1 177.8Q437.1 176.8 437.9 176.1Q438.7 175.3 439.7 175.3L439.7 175.3Q440.8 175.3 441.6 176.1Q442.4 176.8 442.4 177.8L442.4 177.8Q442.4 178.8 441.6 179.5Q440.8 180.2 439.7 180.2ZM445.7 176.7L449.1 176.7L449.1 185.5L445.7 185.5L445.7 176.7ZM467.2 187.5L467.2 187.5L462.8 187.7Q462.7 187.2 462.3 186.7Q461.9 186.3 461.3 186.0Q460.7 185.7 459.9 185.7L459.9 185.7Q458.7 185.7 458.0 186.2Q457.2 186.6 457.2 187.4L457.2 187.4Q457.2 188.1 457.7 188.5Q458.2 188.9 459.4 189.2L459.4 189.2L462.6 189.8Q465.1 190.3 466.4 191.5Q467.6 192.7 467.6 194.5L467.6 194.5Q467.6 196.3 466.6 197.6Q465.6 198.8 463.9 199.6Q462.1 200.3 459.8 200.3L459.8 200.3Q456.4 200.3 454.3 198.8Q452.3 197.4 451.9 194.9L451.9 194.9L456.7 194.6Q456.9 195.7 457.7 196.3Q458.6 196.8 459.9 196.8L459.9 196.8Q461.1 196.8 461.9 196.3Q462.7 195.8 462.7 195.0L462.7 195.0Q462.7 194.4 462.1 193.9Q461.6 193.5 460.5 193.3L460.5 193.3L457.4 192.7Q454.9 192.2 453.6 190.9Q452.4 189.7 452.4 187.7L452.4 187.7Q452.4 186.0 453.3 184.8Q454.2 183.6 455.9 182.9Q457.5 182.3 459.8 182.3L459.8 182.3Q463.1 182.3 465.0 183.7Q466.9 185.1 467.2 187.5Z M483.1 200.0L478.2 200.0L478.2 176.7L487.4 176.7Q490.0 176.7 491.9 177.6Q493.7 178.6 494.7 180.3Q495.7 182.0 495.7 184.3L495.7 184.3Q495.7 186.6 494.7 188.3Q493.7 189.9 491.8 190.8Q489.9 191.7 487.2 191.7L487.2 191.7L481.1 191.7L481.1 187.7L486.4 187.7Q487.9 187.7 488.8 187.4Q489.7 187.0 490.2 186.2Q490.6 185.4 490.6 184.3L490.6 184.3Q490.6 183.1 490.2 182.3Q489.7 181.5 488.8 181.1Q487.8 180.7 486.4 180.7L486.4 180.7L483.1 180.7L483.1 200.0ZM485.4 189.4L490.7 189.4L496.5 200.0L491.1 200.0L485.4 189.4ZM506.7 200.3L506.7 200.3Q504.1 200.3 502.1 199.2Q500.2 198.1 499.1 196.1Q498.1 194.1 498.1 191.3L498.1 191.3Q498.1 188.6 499.1 186.6Q500.2 184.5 502.1 183.4Q504.0 182.3 506.6 182.3L506.6 182.3Q508.3 182.3 509.8 182.8Q511.3 183.4 512.4 184.5Q513.5 185.6 514.1 187.2Q514.8 188.9 514.8 191.1L514.8 191.1L514.8 192.5L500.0 192.5L500.0 189.5L510.2 189.5Q510.2 188.4 509.7 187.6Q509.3 186.8 508.5 186.3Q507.7 185.9 506.6 185.9L506.6 185.9Q505.5 185.9 504.7 186.4Q503.8 186.9 503.4 187.7Q502.9 188.6 502.9 189.6L502.9 189.6L502.9 192.5Q502.9 193.8 503.4 194.7Q503.8 195.7 504.7 196.2Q505.6 196.7 506.8 196.7L506.8 196.7Q507.6 196.7 508.3 196.5Q509.0 196.2 509.5 195.8Q509.9 195.3 510.2 194.7L510.2 194.7L514.7 195.0Q514.3 196.6 513.3 197.8Q512.2 199.0 510.6 199.6Q508.9 200.3 506.7 200.3ZM508.1 180.2L504.7 180.2L507.1 175.1L511.6 175.1L508.1 180.2ZM532.4 187.5L532.4 187.5L528.0 187.7Q527.9 187.2 527.5 186.7Q527.1 186.3 526.5 186.0Q525.9 185.7 525.1 185.7L525.1 185.7Q524.0 185.7 523.2 186.2Q522.4 186.6 522.4 187.4L522.4 187.4Q522.4 188.1 522.9 188.5Q523.4 188.9 524.6 189.2L524.6 189.2L527.8 189.8Q530.3 190.3 531.6 191.5Q532.8 192.7 532.8 194.5L532.8 194.5Q532.8 196.3 531.8 197.6Q530.8 198.8 529.1 199.6Q527.3 200.3 525.1 200.3L525.1 200.3Q521.6 200.3 519.6 198.8Q517.5 197.4 517.1 194.9L517.1 194.9L521.9 194.6Q522.1 195.7 523.0 196.3Q523.8 196.8 525.1 196.8L525.1 196.8Q526.4 196.8 527.1 196.3Q527.9 195.8 527.9 195.0L527.9 195.0Q527.9 194.4 527.4 193.9Q526.8 193.5 525.7 193.3L525.7 193.3L522.7 192.7Q520.1 192.2 518.9 190.9Q517.6 189.7 517.6 187.7L517.6 187.7Q517.6 186.0 518.5 184.8Q519.4 183.6 521.1 182.9Q522.8 182.3 525.0 182.3L525.0 182.3Q528.3 182.3 530.2 183.7Q532.1 185.1 532.4 187.5ZM547.1 192.5L547.1 192.5L547.1 182.5L551.9 182.5L551.9 200.0L547.3 200.0L547.3 196.8L547.1 196.8Q546.5 198.3 545.1 199.2Q543.8 200.2 541.8 200.2L541.8 200.2Q540.1 200.2 538.7 199.4Q537.4 198.6 536.7 197.1Q535.9 195.7 535.9 193.6L535.9 193.6L535.9 182.5L540.7 182.5L540.7 192.7Q540.7 194.3 541.6 195.2Q542.4 196.1 543.8 196.1L543.8 196.1Q544.6 196.1 545.4 195.7Q546.2 195.3 546.6 194.5Q547.1 193.7 547.1 192.5ZM560.6 200.0L555.8 200.0L555.8 182.5L560.4 182.5L560.4 185.6L560.6 185.6Q561.2 184.0 562.4 183.2Q563.7 182.3 565.5 182.3L565.5 182.3Q567.3 182.3 568.5 183.2Q569.8 184.1 570.2 185.6L570.2 185.6L570.4 185.6Q570.9 184.1 572.3 183.2Q573.7 182.3 575.7 182.3L575.7 182.3Q578.1 182.3 579.6 183.8Q581.2 185.4 581.2 188.2L581.2 188.2L581.2 200.0L576.3 200.0L576.3 189.2Q576.3 187.7 575.6 187.0Q574.8 186.3 573.6 186.3L573.6 186.3Q572.3 186.3 571.6 187.1Q570.8 187.9 570.8 189.3L570.8 189.3L570.8 200.0L566.1 200.0L566.1 189.1Q566.1 187.8 565.4 187.0Q564.7 186.3 563.5 186.3L563.5 186.3Q562.7 186.3 562.0 186.7Q561.4 187.1 561.0 187.8Q560.6 188.5 560.6 189.5L560.6 189.5L560.6 200.0ZM592.9 200.3L592.9 200.3Q590.2 200.3 588.3 199.2Q586.4 198.1 585.3 196.1Q584.3 194.1 584.3 191.3L584.3 191.3Q584.3 188.6 585.3 186.6Q586.4 184.5 588.3 183.4Q590.2 182.3 592.7 182.3L592.7 182.3Q594.5 182.3 596.0 182.8Q597.5 183.4 598.6 184.5Q599.7 185.6 600.3 187.2Q600.9 188.9 600.9 191.1L600.9 191.1L600.9 192.5L586.2 192.5L586.2 189.5L596.4 189.5Q596.4 188.4 595.9 187.6Q595.5 186.8 594.7 186.3Q593.9 185.9 592.8 185.9L592.8 185.9Q591.7 185.9 590.9 186.4Q590.0 186.9 589.5 187.7Q589.1 188.6 589.1 189.6L589.1 189.6L589.1 192.5Q589.1 193.8 589.5 194.7Q590.0 195.7 590.9 196.2Q591.8 196.7 593.0 196.7L593.0 196.7Q593.8 196.7 594.5 196.5Q595.2 196.2 595.6 195.8Q596.1 195.3 596.4 194.7L596.4 194.7L600.8 195.0Q600.5 196.6 599.4 197.8Q598.4 199.0 596.7 199.6Q595.1 200.3 592.9 200.3ZM594.3 180.2L590.9 180.2L593.3 175.1L597.8 175.1L594.3 180.2Z "/><mask id="satori_om-id-1"><rect x="234" y="229" width="332" height="31" fill="#fff"/></mask><path fill="#6c6c6c" d="M238.2 253.3L236.0 253.3L236.0 239.2L238.1 239.2L238.1 241.3L238.2 241.3Q238.6 240.2 239.7 239.6Q240.7 238.9 241.9 238.9L241.9 238.9Q242.2 238.9 242.5 238.9Q242.9 239.0 243.1 239.0L243.1 239.0L243.1 241.2Q243.0 241.2 242.6 241.1Q242.2 241.0 241.8 241.0L241.8 241.0Q240.7 241.0 239.9 241.5Q239.1 241.9 238.6 242.6Q238.2 243.4 238.2 244.4L238.2 244.4L238.2 253.3ZM251.2 253.6L251.2 253.6Q249.1 253.6 247.6 252.7Q246.2 251.8 245.4 250.2Q244.6 248.5 244.6 246.4L244.6 246.4Q244.6 244.2 245.4 242.5Q246.2 240.8 247.6 239.9Q249.0 239.0 251.0 239.0L251.0 239.0Q252.1 239.0 253.1 239.3Q254.2 239.7 255.1 240.5Q256.0 241.4 256.5 242.7Q257.0 244.1 257.0 246.1L257.0 246.1L257.0 247.0L246.1 247.0L246.1 245.1L254.8 245.1Q254.8 243.9 254.4 243.0Q253.9 242.0 253.0 241.5Q252.1 240.9 251.0 240.9L251.0 240.9Q249.6 240.9 248.7 241.6Q247.8 242.2 247.2 243.2Q246.7 244.3 246.7 245.4L246.7 245.4L246.7 246.7Q246.7 248.3 247.3 249.4Q247.9 250.5 248.9 251.1Q249.9 251.7 251.2 251.7L251.2 251.7Q252.0 251.7 252.7 251.4Q253.4 251.2 253.9 250.7Q254.4 250.2 254.7 249.5L254.7 249.5L256.8 250.0Q256.5 251.1 255.7 251.9Q254.9 252.7 253.8 253.2Q252.6 253.6 251.2 253.6ZM270.4 242.3L270.4 242.3L268.5 242.9Q268.3 242.4 267.9 241.9Q267.6 241.5 267.0 241.2Q266.3 240.9 265.4 240.9L265.4 240.9Q264.1 240.9 263.2 241.4Q262.4 242.0 262.4 243.0L262.4 243.0Q262.4 243.8 263.0 244.2Q263.5 244.7 264.8 245.0L264.8 245.0L266.9 245.5Q268.8 246.0 269.7 247.0Q270.7 247.9 270.7 249.4L270.7 249.4Q270.7 250.6 270.0 251.6Q269.3 252.5 268.0 253.1Q266.8 253.6 265.1 253.6L265.1 253.6Q263.0 253.6 261.5 252.7Q260.1 251.7 259.7 249.9L259.7 249.9L261.8 249.4Q262.1 250.6 262.9 251.1Q263.8 251.7 265.1 251.7L265.1 251.7Q266.6 251.7 267.5 251.1Q268.4 250.4 268.4 249.5L268.4 249.5Q268.4 248.8 267.9 248.3Q267.4 247.8 266.3 247.5L266.3 247.5L264.0 246.9Q262.0 246.5 261.1 245.5Q260.2 244.5 260.2 243.1L260.2 243.1Q260.2 241.9 260.9 240.9Q261.5 240.0 262.7 239.5Q263.9 239.0 265.4 239.0L265.4 239.0Q267.5 239.0 268.7 239.9Q269.9 240.8 270.4 242.3ZM282.9 247.5L282.9 247.5L282.9 239.2L285.1 239.2L285.1 253.3L282.9 253.3L282.9 250.9L282.8 250.9Q282.3 252.0 281.2 252.8Q280.1 253.5 278.5 253.5L278.5 253.5Q277.2 253.5 276.2 252.9Q275.1 252.3 274.6 251.2Q274.0 250.0 274.0 248.2L274.0 248.2L274.0 239.2L276.1 239.2L276.1 248.0Q276.1 249.6 277.0 250.5Q277.9 251.4 279.2 251.4L279.2 251.4Q280.1 251.4 280.9 251.0Q281.7 250.6 282.3 249.7Q282.9 248.9 282.9 247.5ZM291.2 253.3L289.1 253.3L289.1 239.2L291.2 239.2L291.2 241.4L291.4 241.4Q291.8 240.2 292.8 239.6Q293.8 239.0 295.2 239.0L295.2 239.0Q296.6 239.0 297.5 239.6Q298.4 240.2 299.0 241.4L299.0 241.4L299.1 241.4Q299.7 240.3 300.7 239.6Q301.8 239.0 303.4 239.0L303.4 239.0Q305.3 239.0 306.5 240.2Q307.7 241.3 307.7 243.8L307.7 243.8L307.7 253.3L305.5 253.3L305.5 243.8Q305.5 242.3 304.6 241.6Q303.8 240.9 302.6 240.9L302.6 240.9Q301.1 240.9 300.3 241.8Q299.5 242.7 299.5 244.1L299.5 244.1L299.5 253.3L297.3 253.3L297.3 243.6Q297.3 242.4 296.5 241.7Q295.7 240.9 294.5 240.9L294.5 240.9Q293.6 240.9 292.9 241.4Q292.1 241.8 291.7 242.6Q291.2 243.4 291.2 244.5L291.2 244.5L291.2 253.3ZM317.6 253.6L317.6 253.6Q315.6 253.6 314.1 252.7Q312.6 251.8 311.8 250.2Q311.0 248.5 311.0 246.4L311.0 246.4Q311.0 244.2 311.8 242.5Q312.6 240.8 314.0 239.9Q315.5 239.0 317.4 239.0L317.4 239.0Q318.5 239.0 319.6 239.3Q320.7 239.7 321.5 240.5Q322.4 241.4 323.0 242.7Q323.5 244.1 323.5 246.1L323.5 246.1L323.5 247.0L312.6 247.0L312.6 245.1L321.3 245.1Q321.3 243.9 320.8 243.0Q320.3 242.0 319.4 241.5Q318.6 240.9 317.4 240.9L317.4 240.9Q316.1 240.9 315.1 241.6Q314.2 242.2 313.7 243.2Q313.2 244.3 313.2 245.4L313.2 245.4L313.2 246.7Q313.2 248.3 313.7 249.4Q314.3 250.5 315.3 251.1Q316.3 251.7 317.6 251.7L317.6 251.7Q318.5 251.7 319.2 251.4Q319.9 251.2 320.4 250.7Q320.9 250.2 321.2 249.5L321.2 249.5L323.3 250.0Q322.9 251.1 322.1 251.9Q321.4 252.7 320.2 253.2Q319.1 253.6 317.6 253.6ZM328.4 253.5L328.4 253.5Q327.7 253.5 327.2 253.0Q326.7 252.5 326.7 251.8L326.7 251.8Q326.7 251.1 327.2 250.6Q327.7 250.2 328.4 250.2L328.4 250.2Q329.1 250.2 329.6 250.6Q330.1 251.1 330.1 251.8L330.1 251.8Q330.1 252.3 329.8 252.7Q329.6 253.0 329.2 253.3Q328.9 253.5 328.4 253.5ZM332.8 239.2L340.1 239.2L340.1 241.0L332.8 241.0L332.8 239.2ZM334.9 249.9L334.9 235.8L337.1 235.8L337.1 249.3Q337.1 250.2 337.4 250.7Q337.7 251.1 338.1 251.3Q338.5 251.4 339.0 251.4L339.0 251.4Q339.4 251.4 339.6 251.4Q339.8 251.3 340.0 251.3L340.0 251.3L340.4 253.3Q340.2 253.3 339.8 253.4Q339.4 253.5 338.8 253.5L338.8 253.5Q337.9 253.5 337.0 253.1Q336.1 252.7 335.5 251.9Q334.9 251.1 334.9 249.9L334.9 249.9ZM352.4 247.5L352.4 247.5L352.4 239.2L354.5 239.2L354.5 253.3L352.4 253.3L352.4 250.9L352.2 250.9Q351.7 252.0 350.7 252.8Q349.6 253.5 348.0 253.5L348.0 253.5Q346.7 253.5 345.6 252.9Q344.6 252.3 344.0 251.2Q343.4 250.0 343.4 248.2L343.4 248.2L343.4 239.2L345.6 239.2L345.6 248.0Q345.6 249.6 346.5 250.5Q347.4 251.4 348.7 251.4L348.7 251.4Q349.5 251.4 350.4 251.0Q351.2 250.6 351.8 249.7Q352.4 248.9 352.4 247.5ZM368.6 242.3L368.6 242.3L366.6 242.9Q366.4 242.4 366.1 241.9Q365.7 241.5 365.1 241.2Q364.5 240.9 363.6 240.9L363.6 240.9Q362.3 240.9 361.4 241.4Q360.5 242.0 360.5 243.0L360.5 243.0Q360.5 243.8 361.1 244.2Q361.7 244.7 363.0 245.0L363.0 245.0L365.1 245.5Q367.0 246.0 367.9 247.0Q368.8 247.9 368.8 249.4L368.8 249.4Q368.8 250.6 368.1 251.6Q367.4 252.5 366.2 253.1Q365.0 253.6 363.3 253.6L363.3 253.6Q361.1 253.6 359.7 252.7Q358.3 251.7 357.9 249.9L357.9 249.9L360.0 249.4Q360.3 250.6 361.1 251.1Q361.9 251.7 363.3 251.7L363.3 251.7Q364.8 251.7 365.7 251.1Q366.6 250.4 366.6 249.5L366.6 249.5Q366.6 248.8 366.1 248.3Q365.6 247.8 364.5 247.5L364.5 247.5L362.1 246.9Q360.2 246.5 359.3 245.5Q358.3 244.5 358.3 243.1L358.3 243.1Q358.3 241.9 359.0 240.9Q359.7 240.0 360.9 239.5Q362.1 239.0 363.6 239.0L363.6 239.0Q365.7 239.0 366.9 239.9Q368.1 240.8 368.6 242.3ZM374.3 244.8L374.3 244.8L374.3 253.3L372.1 253.3L372.1 234.4L374.3 234.4L374.3 241.4L374.5 241.4Q375.0 240.3 376.0 239.6Q377.0 239.0 378.7 239.0L378.7 239.0Q380.1 239.0 381.2 239.5Q382.3 240.1 382.9 241.3Q383.5 242.5 383.5 244.3L383.5 244.3L383.5 253.3L381.3 253.3L381.3 244.5Q381.3 242.8 380.4 241.9Q379.6 240.9 378.0 240.9L378.0 240.9Q377.0 240.9 376.1 241.4Q375.3 241.8 374.8 242.7Q374.3 243.6 374.3 244.8ZM391.7 253.7L391.7 253.7Q390.3 253.7 389.2 253.2Q388.1 252.6 387.5 251.7Q386.8 250.7 386.8 249.3L386.8 249.3Q386.8 248.1 387.3 247.3Q387.8 246.6 388.6 246.1Q389.4 245.7 390.4 245.5Q391.3 245.3 392.3 245.1L392.3 245.1Q393.6 245.0 394.4 244.9Q395.2 244.8 395.6 244.6Q396.0 244.4 396.0 243.8L396.0 243.8L396.0 243.8Q396.0 242.4 395.2 241.6Q394.5 240.9 393.0 240.9L393.0 240.9Q391.4 240.9 390.5 241.6Q389.7 242.3 389.3 243.0L389.3 243.0L387.2 242.3Q387.8 241.0 388.7 240.3Q389.6 239.6 390.7 239.3Q391.8 239.0 392.9 239.0L392.9 239.0Q393.6 239.0 394.5 239.1Q395.4 239.3 396.2 239.8Q397.1 240.3 397.6 241.3Q398.2 242.3 398.2 244.0L398.2 244.0L398.2 253.3L396.0 253.3L396.0 251.4L395.9 251.4Q395.7 251.9 395.1 252.4Q394.6 252.9 393.8 253.3Q392.9 253.7 391.7 253.7ZM392.0 251.7L392.0 251.7Q393.3 251.7 394.2 251.2Q395.1 250.7 395.5 249.9Q396.0 249.1 396.0 248.2L396.0 248.2L396.0 246.2Q395.8 246.4 395.4 246.5Q394.9 246.6 394.3 246.7Q393.7 246.8 393.1 246.9Q392.6 247.0 392.2 247.0L392.2 247.0Q391.4 247.1 390.6 247.4Q389.9 247.6 389.5 248.1Q389.0 248.6 389.0 249.4L389.0 249.4Q389.0 250.6 389.8 251.1Q390.7 251.7 392.0 251.7ZM404.3 253.3L402.2 253.3L402.2 239.2L404.3 239.2L404.3 241.3L404.4 241.3Q404.8 240.2 405.8 239.6Q406.8 238.9 408.1 238.9L408.1 238.9Q408.3 238.9 408.7 238.9Q409.1 239.0 409.2 239.0L409.2 239.0L409.2 241.2Q409.1 241.2 408.7 241.1Q408.3 241.0 407.9 241.0L407.9 241.0Q406.9 241.0 406.1 241.5Q405.3 241.9 404.8 242.6Q404.3 243.4 404.3 244.4L404.3 244.4L404.3 253.3ZM414.0 244.8L414.0 244.8L414.0 253.3L411.8 253.3L411.8 239.2L413.9 239.2L413.9 241.4L414.1 241.4Q414.6 240.3 415.6 239.6Q416.6 239.0 418.3 239.0L418.3 239.0Q419.7 239.0 420.8 239.6Q421.9 240.1 422.5 241.3Q423.1 242.5 423.1 244.3L423.1 244.3L423.1 253.3L420.9 253.3L420.9 244.5Q420.9 242.8 420.0 241.9Q419.1 240.9 417.6 240.9L417.6 240.9Q416.6 240.9 415.8 241.4Q414.9 241.8 414.5 242.7Q414.0 243.6 414.0 244.8ZM431.2 253.7L431.2 253.7Q429.9 253.7 428.8 253.2Q427.7 252.6 427.0 251.7Q426.4 250.7 426.4 249.3L426.4 249.3Q426.4 248.1 426.9 247.3Q427.3 246.6 428.1 246.1Q428.9 245.7 429.9 245.5Q430.9 245.3 431.9 245.1L431.9 245.1Q433.2 245.0 434.0 244.9Q434.8 244.8 435.2 244.6Q435.5 244.4 435.5 243.8L435.5 243.8L435.5 243.8Q435.5 242.4 434.8 241.6Q434.1 240.9 432.5 240.9L432.5 240.9Q431.0 240.9 430.1 241.6Q429.2 242.3 428.9 243.0L428.9 243.0L426.8 242.3Q427.3 241.0 428.3 240.3Q429.2 239.6 430.3 239.3Q431.4 239.0 432.5 239.0L432.5 239.0Q433.2 239.0 434.0 239.1Q434.9 239.3 435.8 239.8Q436.6 240.3 437.2 241.3Q437.7 242.3 437.7 244.0L437.7 244.0L437.7 253.3L435.5 253.3L435.5 251.4L435.4 251.4Q435.2 251.9 434.7 252.4Q434.2 252.9 433.3 253.3Q432.5 253.7 431.2 253.7ZM431.5 251.7L431.5 251.7Q432.8 251.7 433.7 251.2Q434.6 250.7 435.1 249.9Q435.5 249.1 435.5 248.2L435.5 248.2L435.5 246.2Q435.4 246.4 434.9 246.5Q434.5 246.6 433.9 246.7Q433.3 246.8 432.7 246.9Q432.1 247.0 431.8 247.0L431.8 247.0Q430.9 247.1 430.2 247.4Q429.5 247.6 429.0 248.1Q428.6 248.6 428.6 249.4L428.6 249.4Q428.6 250.6 429.4 251.1Q430.2 251.7 431.5 251.7ZM443.9 244.8L443.9 244.8L443.9 253.3L441.7 253.3L441.7 239.2L443.8 239.2L443.8 241.4L444.0 241.4Q444.5 240.3 445.5 239.6Q446.5 239.0 448.1 239.0L448.1 239.0Q449.6 239.0 450.7 239.6Q451.7 240.1 452.3 241.3Q452.9 242.5 452.9 244.3L452.9 244.3L452.9 253.3L450.8 253.3L450.8 244.5Q450.8 242.8 449.9 241.9Q449.0 240.9 447.5 240.9L447.5 240.9Q446.5 240.9 445.6 241.4Q444.8 241.8 444.4 242.7Q443.9 243.6 443.9 244.8ZM461.5 245.8L459.0 248.2L458.9 245.5L459.4 245.5L465.6 239.2L468.3 239.2L461.6 245.8L461.5 245.8ZM459.1 253.3L456.9 253.3L456.9 234.4L459.1 234.4L459.1 253.3ZM468.7 253.3L465.9 253.3L460.4 246.3L461.9 244.8L468.7 253.3ZM475.2 253.7L475.2 253.7Q473.9 253.7 472.8 253.2Q471.7 252.6 471.0 251.7Q470.4 250.7 470.4 249.3L470.4 249.3Q470.4 248.1 470.9 247.3Q471.4 246.6 472.2 246.1Q473.0 245.7 473.9 245.5Q474.9 245.3 475.9 245.1L475.9 245.1Q477.2 245.0 478.0 244.9Q478.8 244.8 479.2 244.6Q479.6 244.4 479.6 243.8L479.6 243.8L479.6 243.8Q479.6 242.4 478.8 241.6Q478.1 240.9 476.6 240.9L476.6 240.9Q475.0 240.9 474.1 241.6Q473.2 242.3 472.9 243.0L472.9 243.0L470.8 242.3Q471.4 241.0 472.3 240.3Q473.2 239.6 474.3 239.3Q475.4 239.0 476.5 239.0L476.5 239.0Q477.2 239.0 478.1 239.1Q479.0 239.3 479.8 239.8Q480.6 240.3 481.2 241.3Q481.7 242.3 481.7 244.0L481.7 244.0L481.7 253.3L479.6 253.3L479.6 251.4L479.4 251.4Q479.2 251.9 478.7 252.4Q478.2 252.9 477.3 253.3Q476.5 253.7 475.2 253.7ZM475.6 251.7L475.6 251.7Q476.9 251.7 477.8 251.2Q478.6 250.7 479.1 249.9Q479.6 249.1 479.6 248.2L479.6 248.2L479.6 246.2Q479.4 246.4 479.0 246.5Q478.5 246.6 477.9 246.7Q477.3 246.8 476.7 246.9Q476.1 247.0 475.8 247.0L475.8 247.0Q474.9 247.1 474.2 247.4Q473.5 247.6 473.0 248.1Q472.6 248.6 472.6 249.4L472.6 249.4Q472.6 250.6 473.4 251.1Q474.3 251.7 475.6 251.7ZM487.9 244.8L487.9 244.8L487.9 253.3L485.7 253.3L485.7 239.2L487.8 239.2L487.8 241.4L488.0 241.4Q488.5 240.3 489.5 239.6Q490.5 239.0 492.2 239.0L492.2 239.0Q493.6 239.0 494.7 239.6Q495.8 240.1 496.4 241.3Q497.0 242.5 497.0 244.3L497.0 244.3L497.0 253.3L494.8 253.3L494.8 244.5Q494.8 242.8 493.9 241.9Q493.0 240.9 491.5 240.9L491.5 240.9Q490.5 240.9 489.7 241.4Q488.8 241.8 488.4 242.7Q487.9 243.6 487.9 244.8ZM503.1 253.3L500.9 253.3L500.9 239.2L503.1 239.2L503.1 253.3ZM502.1 236.8L502.1 236.8Q501.4 236.8 501.0 236.4Q500.5 235.9 500.5 235.3L500.5 235.3Q500.5 234.7 501.0 234.3Q501.4 233.8 502.1 233.8L502.1 233.8Q502.7 233.8 503.1 234.3Q503.6 234.7 503.6 235.3L503.6 235.3Q503.6 235.9 503.1 236.4Q502.7 236.8 502.1 236.8ZM508.7 253.5L508.7 253.5Q508.0 253.5 507.5 253.0Q507.0 252.5 507.0 251.8L507.0 251.8Q507.0 251.1 507.5 250.6Q508.0 250.2 508.7 250.2L508.7 250.2Q509.4 250.2 509.9 250.6Q510.4 251.1 510.4 251.8L510.4 251.8Q510.4 252.3 510.1 252.7Q509.9 253.0 509.5 253.3Q509.2 253.5 508.7 253.5ZM520.0 253.6L520.0 253.6Q518.0 253.6 516.6 252.7Q515.2 251.7 514.4 250.1Q513.6 248.4 513.6 246.3L513.6 246.3Q513.6 244.2 514.4 242.5Q515.2 240.8 516.6 239.9Q518.1 239.0 520.0 239.0L520.0 239.0Q521.5 239.0 522.7 239.5Q523.9 240.1 524.7 241.1Q525.4 242.1 525.6 243.4L525.6 243.4L523.4 243.4Q523.2 242.4 522.3 241.7Q521.5 240.9 520.0 240.9L520.0 240.9Q518.8 240.9 517.8 241.6Q516.9 242.2 516.3 243.4Q515.8 244.6 515.8 246.2L515.8 246.2Q515.8 247.9 516.3 249.1Q516.8 250.3 517.8 251.0Q518.7 251.7 520.0 251.7L520.0 251.7Q520.9 251.7 521.6 251.4Q522.3 251.1 522.8 250.5Q523.2 250.0 523.4 249.2L523.4 249.2L525.6 249.2Q525.4 250.5 524.7 251.5Q524.0 252.5 522.8 253.0Q521.6 253.6 520.0 253.6ZM534.6 253.6L534.6 253.6Q532.6 253.6 531.2 252.7Q529.7 251.8 528.9 250.2Q528.1 248.5 528.1 246.3L528.1 246.3Q528.1 244.1 528.9 242.5Q529.7 240.8 531.2 239.9Q532.6 239.0 534.6 239.0L534.6 239.0Q536.5 239.0 537.9 239.9Q539.4 240.8 540.2 242.5Q541.0 244.1 541.0 246.3L541.0 246.3Q541.0 248.5 540.2 250.2Q539.4 251.8 537.9 252.7Q536.5 253.6 534.6 253.6ZM534.6 251.7L534.6 251.7Q536.0 251.7 537.0 250.9Q537.9 250.2 538.3 249.0Q538.8 247.7 538.8 246.3L538.8 246.3Q538.8 244.9 538.3 243.7Q537.9 242.4 537.0 241.7Q536.0 240.9 534.6 240.9L534.6 240.9Q533.1 240.9 532.2 241.7Q531.2 242.4 530.8 243.7Q530.3 244.9 530.3 246.3L530.3 246.3Q530.3 247.7 530.8 249.0Q531.2 250.2 532.2 250.9Q533.1 251.7 534.6 251.7ZM546.5 253.3L544.3 253.3L544.3 239.2L546.4 239.2L546.4 241.4L546.6 241.4Q547.0 240.2 548.0 239.6Q549.0 239.0 550.4 239.0L550.4 239.0Q551.8 239.0 552.7 239.6Q553.7 240.2 554.2 241.4L554.2 241.4L554.3 241.4Q554.9 240.3 556.0 239.6Q557.1 239.0 558.6 239.0L558.6 239.0Q560.5 239.0 561.7 240.2Q562.9 241.3 562.9 243.8L562.9 243.8L562.9 253.3L560.7 253.3L560.7 243.8Q560.7 242.3 559.9 241.6Q559.0 240.9 557.9 240.9L557.9 240.9Q556.4 240.9 555.5 241.8Q554.7 242.7 554.7 244.1L554.7 244.1L554.7 253.3L552.5 253.3L552.5 243.6Q552.5 242.4 551.7 241.7Q550.9 240.9 549.7 240.9L549.7 240.9Q548.8 240.9 548.1 241.4Q547.4 241.8 546.9 242.6Q546.5 243.4 546.5 244.5L546.5 244.5L546.5 253.3Z "/></svg>
